<svg width="445" height="388" viewBox="0 0 445 388" fill="none" xmlns="http://www.w3.org/2000/svg">
<g clip-path="url(#clip0_19_24)">
<path d="M21.4722 132.219L0.0154461 120.179C-0.273983 107.297 2.59726 94.54 8.37986 83.0149C13.3268 105.384 39.361 116.026 51.3728 135.557C55.0724 141.677 57.3421 148.548 58.0138 155.661C58.6855 162.773 57.742 169.946 55.2531 176.646L56.6643 193.989C45.5747 190.68 35.337 185.015 26.6566 177.385C17.9761 169.754 11.0593 160.34 6.38269 149.79C3.81797 143.845 2.01486 137.603 1.01591 131.21C11.02 132.27 21.4722 132.219 21.4722 132.219Z" fill="#F2F2F2"/>
<path d="M407.194 351.257L407.852 336.519C414.71 332.866 422.361 330.937 430.138 330.898C419.434 339.617 420.772 356.422 413.515 368.146C411.223 371.785 408.139 374.864 404.491 377.155C400.843 379.445 396.724 380.888 392.44 381.377L383.483 386.841C382.254 380.015 382.525 373.004 384.277 366.292C386.029 359.581 389.221 353.327 393.633 347.963C396.138 344.978 399.011 342.319 402.182 340.049C404.328 345.684 407.194 351.257 407.194 351.257Z" fill="#F2F2F2"/>
<path d="M384.115 379.256L376.004 379.255L372.145 348.089L384.116 348.09L384.115 379.256Z" fill="#FFB6B6"/>
<path d="M386.183 387.089L360.031 387.088V386.758C360.031 384.069 361.104 381.489 363.013 379.588C364.921 377.686 367.51 376.617 370.21 376.617L374.988 373.007L383.9 376.618L386.183 376.618L386.183 387.089Z" fill="#2F2E41"/>
<path d="M346.434 379.256L338.323 379.255L334.465 348.089L346.436 348.09L346.434 379.256Z" fill="#FFB6B6"/>
<path d="M348.503 387.089L322.351 387.088V386.758C322.351 384.069 323.423 381.489 325.332 379.588C327.241 377.686 329.83 376.617 332.53 376.617L337.307 373.007L346.22 376.618L348.503 376.618L348.503 387.089Z" fill="#2F2E41"/>
<path d="M342.923 208.868L395.678 210.182C405.698 215.603 405.85 227.337 402.567 241.269C402.567 241.269 403.675 249.55 401.459 251.758C399.242 253.966 398.134 253.966 399.242 257.83C400.35 261.695 394.495 268.006 395.206 268.715C395.917 269.423 397.58 273.288 397.58 273.288L392.039 304.754C392.039 304.754 388.16 359.406 387.051 360.51C385.943 361.614 384.835 360.51 385.943 363.271C387.051 366.031 388.16 364.927 387.051 366.031C386.07 367.085 385.145 368.191 384.281 369.343H370.884C370.884 369.343 369.874 363.823 369.874 363.271C369.874 362.719 368.765 359.406 368.765 358.854C368.765 358.302 369.745 357.326 369.745 357.326C370.083 356.204 370.312 355.052 370.428 353.886C370.428 352.782 373.753 310.274 373.753 310.274L367.103 255.07L351.033 309.17C351.033 309.17 351.033 356.646 349.925 357.75C348.817 358.854 348.817 358.302 349.371 360.51C349.925 362.719 352.142 362.166 350.479 363.823C348.817 365.479 348.263 362.719 348.817 365.479L349.371 368.239L332.747 368.476C332.747 368.476 330.531 363.823 331.639 362.166C332.747 360.51 332.681 360.962 331.329 358.252C329.977 355.542 329.423 354.99 329.977 354.438C330.531 353.886 330.531 350.95 330.531 350.95L333.301 298.129C333.301 298.129 333.856 242.373 333.856 240.717C333.897 239.865 333.74 239.015 333.395 238.234V235.986L335.518 228.02L342.923 208.868Z" fill="#2F2E41"/>
<path d="M374.614 99.584C383.667 99.584 391.005 92.2729 391.005 83.2543C391.005 74.2356 383.667 66.9246 374.614 66.9246C365.561 66.9246 358.223 74.2356 358.223 83.2543C358.223 92.2729 365.561 99.584 374.614 99.584Z" fill="#FFB6B6"/>
<path d="M366.418 110.377C362.887 112.468 360.775 116.311 359.562 120.221C357.317 127.461 355.966 134.946 355.538 142.511L354.257 165.16L338.395 213.386C352.142 224.975 403.817 216.02 403.817 216.02C403.817 216.02 405.403 215.493 403.817 213.913C402.231 212.333 400.686 213.733 402.273 212.152C403.859 210.572 402.765 212.333 402.237 210.752C401.708 209.172 402.237 210.226 402.765 209.699C403.294 209.172 398.672 204.431 398.672 204.431L402.902 176.749L408.19 120.912C401.845 113.01 389.084 108.353 389.084 108.353L385.787 102.44L369.301 103.754L366.418 110.377Z" fill="#E6E6E6"/>
<path d="M364.17 73.6707C364.804 73.6757 365.436 73.7582 366.05 73.9164C367.26 74.2063 368.49 74.4117 369.729 74.531C373.523 74.8867 377.089 76.4989 379.856 79.1102C382.623 81.7214 384.432 85.1811 384.993 88.9367C385.946 88.1094 388.113 86.5876 389.89 88.0019C389.917 88.0244 389.932 88.036 389.995 88.0064C391.175 87.4489 393.269 80.5861 393.332 74.5436C393.366 71.3364 392.859 67.241 390.255 65.944L390.118 65.8757L390.082 65.7272C389.908 65.0058 387.965 63.7743 384.587 62.8158C378.449 61.0739 369.299 57.6808 364.146 62.6744C363.756 64.3579 362.487 67.9605 361.206 68.3688C359.787 68.8208 358.561 69.2109 358.368 70.945C358.207 73.4129 358.219 75.8889 358.403 78.3551C358.884 76.846 359.828 75.5251 361.102 74.5785C362.008 73.971 363.078 73.6542 364.17 73.6707Z" fill="#2F2E41"/>
<path d="M333.661 163.899L360.437 146.816L346.951 128.957L333.634 145.275L292.143 147.811C291.052 146.736 289.67 146.001 288.167 145.695C286.664 145.389 285.103 145.525 283.676 146.087C282.249 146.65 281.017 147.613 280.131 148.861C279.244 150.109 278.741 151.586 278.683 153.114C278.624 154.642 279.014 156.153 279.803 157.464C280.592 158.775 281.747 159.829 283.127 160.498C284.507 161.166 286.052 161.42 287.575 161.229C289.097 161.037 290.531 160.409 291.701 159.42L333.661 163.899Z" fill="#FFB6B6"/>
<path d="M385.288 122.972C386.842 132.341 357.495 150.232 357.495 150.232C357.495 148.033 339.979 164.635 339.189 162.811C336.942 157.628 335.362 145.35 332.222 143.385C330.427 142.261 343.036 131.704 343.036 131.704C343.036 131.704 349.637 125.079 358.299 116.723C360.704 114.315 363.681 112.553 366.954 111.6C370.226 110.647 373.687 110.535 377.015 111.273C377.015 111.273 383.734 113.602 385.288 122.972Z" fill="#E6E6E6"/>
<path d="M440.476 168.384L422.765 142.077L405.128 155.887L421.786 168.805L425.209 210.077C424.154 211.187 423.445 212.578 423.17 214.082C422.895 215.586 423.065 217.138 423.659 218.547C424.253 219.956 425.247 221.163 426.517 222.02C427.788 222.876 429.282 223.346 430.816 223.372C432.35 223.398 433.859 222.978 435.158 222.164C436.457 221.35 437.49 220.178 438.132 218.789C438.774 217.4 438.996 215.856 438.771 214.343C438.547 212.831 437.886 211.417 436.868 210.272L440.476 168.384Z" fill="#FFB6B6"/>
<path d="M398.309 117.829C407.679 116.083 426.255 144.934 426.255 144.934C424.048 144.981 441.08 162.075 439.267 162.901C434.112 165.249 421.824 167.082 419.919 170.251C418.829 172.064 407.967 159.727 407.967 159.727C407.967 159.727 401.179 153.293 392.61 144.843C390.143 142.498 388.312 139.57 387.286 136.331C386.26 133.092 386.074 129.647 386.744 126.317C386.744 126.317 388.94 119.576 398.309 117.829Z" fill="#E6E6E6"/>
<path d="M445 387.218C445 387.321 444.98 387.423 444.941 387.518C444.902 387.613 444.844 387.699 444.771 387.772C444.698 387.844 444.611 387.902 444.516 387.941C444.421 387.98 444.318 388 444.215 388H259.382C259.174 388 258.974 387.918 258.827 387.771C258.68 387.625 258.597 387.426 258.597 387.218C258.597 387.011 258.68 386.812 258.827 386.666C258.974 386.519 259.174 386.437 259.382 386.437H444.215C444.318 386.436 444.421 386.456 444.516 386.495C444.611 386.535 444.698 386.592 444.771 386.665C444.844 386.737 444.902 386.824 444.941 386.919C444.98 387.014 445 387.116 445 387.218Z" fill="#CCCCCC"/>
<path d="M273.773 150.307H49.4523C45.9477 150.311 42.5877 151.7 40.1095 154.169C37.6313 156.638 36.2374 159.985 36.2334 163.477V302.613C36.2374 306.105 37.6314 309.452 40.1095 311.921C42.5877 314.39 45.9477 315.778 49.4523 315.782H273.773C277.278 315.779 280.638 314.39 283.116 311.921C285.594 309.452 286.988 306.105 286.992 302.613V163.477C286.988 159.985 285.594 156.638 283.116 154.169C280.638 151.7 277.278 150.311 273.773 150.307Z" fill="#6C63FF"/>
<path d="M273.773 150.307H49.4523C45.9477 150.311 42.5877 151.7 40.1095 154.169C37.6313 156.638 36.2374 159.985 36.2334 163.477V302.613C36.2374 306.105 37.6314 309.452 40.1095 311.921C42.5877 314.39 45.9477 315.778 49.4523 315.782H273.773C277.278 315.779 280.638 314.39 283.116 311.921C285.594 309.452 286.988 306.105 286.992 302.613V163.477C286.988 159.985 285.594 156.638 283.116 154.169C280.638 151.7 277.278 150.311 273.773 150.307ZM278.111 250.251C278.057 264.416 272.433 277.996 262.445 288.077C252.457 298.158 238.901 303.938 224.684 304.177C201.923 304.472 237.278 304.587 209.826 304.587C147.053 304.587 81.5973 303.989 57.1751 303.602C53.9619 303.536 50.9019 302.221 48.6485 299.938C46.395 297.655 45.1267 294.585 45.1143 291.383V163.487C45.1155 162.34 45.5725 161.241 46.3853 160.429C47.1981 159.618 48.3005 159.16 49.4514 159.155H273.764C274.915 159.157 276.018 159.612 276.832 160.422C277.647 161.231 278.107 162.329 278.111 163.475V250.251Z" fill="#3F3D56"/>
<path d="M246.159 70.1882H75.2507C73.7385 70.1904 72.2639 70.6575 71.0281 71.5256C69.7923 72.3938 68.8555 73.6208 68.3457 75.0391L41.95 148.816C41.5561 149.917 41.4333 151.096 41.5919 152.254C41.7504 153.413 42.1858 154.516 42.8614 155.472C43.537 156.428 44.433 157.208 45.4742 157.747C46.5154 158.287 47.6713 158.569 48.8447 158.571L278.061 158.976H278.072C279.285 158.976 280.479 158.676 281.547 158.103C282.615 157.53 283.523 156.702 284.191 155.693C284.859 154.684 285.265 153.526 285.373 152.322C285.481 151.119 285.287 149.907 284.809 148.796L252.897 74.6144C252.333 73.3001 251.394 72.1799 250.196 71.3929C248.998 70.606 247.594 70.1871 246.159 70.1882Z" fill="#3F3D56"/>
<path d="M285.403 150.398C285.402 151.388 285.2 152.367 284.809 153.276L252.899 210.379C252.331 211.69 251.39 212.808 250.193 213.593C248.995 214.379 247.593 214.798 246.16 214.8H75.2534C73.7407 214.799 72.2653 214.332 71.0285 213.465C69.7916 212.597 68.8537 211.37 68.3425 209.952L41.9518 153.256C41.6283 152.353 41.4867 151.395 41.5351 150.437C41.5834 149.479 41.8207 148.54 42.2335 147.674C42.6463 146.808 43.2264 146.031 43.9407 145.388C44.655 144.745 45.4895 144.249 46.3964 143.927C47.181 143.645 48.0088 143.501 48.843 143.5L76.8426 143.448L88.2707 143.428L238.649 143.165L250.083 143.146L278.063 143.093H278.07C280.015 143.093 281.879 143.863 283.255 145.233C284.63 146.603 285.402 148.461 285.403 150.398Z" fill="#3F3D56"/>
<path d="M66.2691 254.676C69.6582 254.676 116.198 257.509 116.198 260.886C116.198 264.262 69.6582 266.903 66.2691 266.903C64.6417 266.903 63.0808 266.259 61.93 265.112C60.7792 263.966 60.1327 262.411 60.1327 260.789C60.1327 259.168 60.7792 257.613 61.93 256.466C63.0808 255.32 64.6417 254.676 66.2691 254.676Z" fill="#3F3D56"/>
<path d="M235.516 25.3064H91.4095C87.5475 25.3108 83.845 26.8412 81.1141 29.5618C78.3832 32.2825 76.8471 35.9711 76.8426 39.8187V214.8H246.16C247.55 214.804 248.912 214.41 250.083 213.664V39.8187C250.079 35.9711 248.543 32.2825 245.812 29.5619C243.081 26.8412 239.378 25.3109 235.516 25.3064Z" fill="#E6E6E6"/>
<path d="M180.513 37.0725H101.539C98.0219 37.0759 94.6501 38.4687 92.1628 40.9454C89.6756 43.4222 88.2758 46.7806 88.2707 50.284V214.8H238.649V94.9902C238.631 79.6349 232.5 64.9136 221.601 54.0558C210.703 43.1979 195.926 37.0902 180.513 37.0725Z" fill="white"/>
<path d="M213.03 200.189H113.89C113.033 200.189 112.211 200.529 111.605 201.132C110.999 201.736 110.659 202.555 110.659 203.409C110.659 204.262 110.999 205.081 111.605 205.685C112.211 206.289 113.033 206.628 113.89 206.628H213.03C213.887 206.628 214.708 206.289 215.314 205.685C215.92 205.081 216.261 204.262 216.261 203.409C216.261 202.555 215.92 201.736 215.314 201.132C214.708 200.529 213.887 200.189 213.03 200.189Z" fill="#E4E4E4"/>
<path d="M213.03 187.458H113.89C113.032 187.458 112.209 187.797 111.603 188.401C110.996 189.006 110.655 189.825 110.655 190.68C110.655 191.535 110.996 192.354 111.603 192.958C112.209 193.563 113.032 193.902 113.89 193.902H213.03C213.887 193.902 214.71 193.563 215.317 192.958C215.923 192.354 216.264 191.535 216.264 190.68C216.264 189.825 215.923 189.006 215.317 188.401C214.71 187.797 213.887 187.458 213.03 187.458Z" fill="#E4E4E4"/>
<path d="M156.865 174.732H113.89C113.033 174.732 112.211 175.071 111.605 175.675C110.999 176.279 110.659 177.098 110.659 177.951C110.659 178.805 110.999 179.624 111.605 180.228C112.211 180.831 113.033 181.17 113.89 181.17H156.865C157.722 181.17 158.544 180.831 159.15 180.228C159.756 179.624 160.096 178.805 160.096 177.951C160.096 177.098 159.756 176.279 159.15 175.675C158.544 175.071 157.722 174.732 156.865 174.732Z" fill="#E4E4E4"/>
<path d="M213.03 148.073H113.89C113.032 148.073 112.209 148.412 111.603 149.017C110.996 149.621 110.655 150.441 110.655 151.295C110.655 152.15 110.996 152.969 111.603 153.574C112.209 154.178 113.032 154.518 113.89 154.518H213.03C213.887 154.518 214.71 154.178 215.317 153.574C215.923 152.969 216.264 152.15 216.264 151.295C216.264 150.441 215.923 149.621 215.317 149.017C214.71 148.412 213.887 148.073 213.03 148.073Z" fill="#E4E4E4"/>
<path d="M213.03 135.347H113.89C113.033 135.347 112.211 135.687 111.605 136.29C110.999 136.894 110.659 137.713 110.659 138.567C110.659 139.42 110.999 140.239 111.605 140.843C112.211 141.446 113.033 141.786 113.89 141.786H213.03C213.887 141.786 214.708 141.446 215.314 140.843C215.92 140.239 216.261 139.42 216.261 138.567C216.261 137.713 215.92 136.894 215.314 136.29C214.708 135.687 213.887 135.347 213.03 135.347Z" fill="#E4E4E4"/>
<path d="M156.865 122.615H113.89C113.032 122.615 112.209 122.955 111.603 123.559C110.996 124.164 110.655 124.983 110.655 125.838C110.655 126.693 110.996 127.512 111.603 128.116C112.209 128.721 113.032 129.06 113.89 129.06H156.865C157.723 129.06 158.546 128.721 159.152 128.116C159.759 127.512 160.1 126.693 160.1 125.838C160.1 124.983 159.759 124.164 159.152 123.559C158.546 122.955 157.723 122.615 156.865 122.615Z" fill="#E4E4E4"/>
<path d="M213.03 95.9561H113.89C113.032 95.9561 112.209 96.2956 111.603 96.8999C110.996 97.5042 110.655 98.3238 110.655 99.1784C110.655 100.033 110.996 100.853 111.603 101.457C112.209 102.061 113.032 102.401 113.89 102.401H213.03C213.887 102.401 214.71 102.061 215.317 101.457C215.923 100.853 216.264 100.033 216.264 99.1784C216.264 98.3238 215.923 97.5042 215.317 96.8999C214.71 96.2956 213.887 95.9561 213.03 95.9561Z" fill="#6C63FF"/>
<path d="M213.03 83.2307H113.89C113.032 83.2307 112.209 83.5702 111.603 84.1745C110.996 84.7788 110.655 85.5985 110.655 86.4531C110.655 87.3077 110.996 88.1274 111.603 88.7317C112.209 89.336 113.032 89.6755 113.89 89.6755H213.03C213.887 89.6755 214.71 89.336 215.317 88.7317C215.923 88.1274 216.264 87.3077 216.264 86.4531C216.264 85.5985 215.923 84.7788 215.317 84.1745C214.71 83.5702 213.887 83.2307 213.03 83.2307Z" fill="#6C63FF"/>
<path d="M156.865 70.4988H113.89C113.032 70.4988 112.209 70.8383 111.603 71.4426C110.996 72.0469 110.655 72.8665 110.655 73.7212C110.655 74.5758 110.996 75.3954 111.603 75.9997C112.209 76.6041 113.032 76.9436 113.89 76.9436H156.865C157.723 76.9436 158.546 76.6041 159.152 75.9997C159.759 75.3954 160.1 74.5758 160.1 73.7212C160.1 72.8665 159.759 72.0469 159.152 71.4426C158.546 70.8383 157.723 70.4988 156.865 70.4988Z" fill="#6C63FF"/>
<path d="M244.681 50.1429C258.579 50.1429 269.847 38.9181 269.847 25.0715C269.847 11.2249 258.579 0 244.681 0C230.782 0 219.515 11.2249 219.515 25.0715C219.515 38.9181 230.782 50.1429 244.681 50.1429Z" fill="#6C63FF"/>
<path d="M241.247 38.12C240.813 38.12 240.384 38.0192 239.996 37.8255C239.607 37.6318 239.269 37.3506 239.008 37.0042L232.143 27.8842C231.921 27.5913 231.759 27.2577 231.667 26.9025C231.575 26.5473 231.554 26.1775 231.606 25.8142C231.657 25.4509 231.78 25.1014 231.968 24.7856C232.155 24.4698 232.403 24.1939 232.698 23.9738C232.993 23.7537 233.328 23.5937 233.685 23.5029C234.041 23.4121 234.413 23.3923 234.777 23.4447C235.142 23.4971 235.492 23.6206 235.809 23.8082C236.125 23.9958 236.401 24.2437 236.622 24.5378L241.113 30.5039L252.65 13.2644C253.062 12.6489 253.702 12.2217 254.43 12.0766C255.158 11.9316 255.914 12.0806 256.532 12.4909C257.15 12.9012 257.578 13.5391 257.724 14.2644C257.87 14.9897 257.72 15.7429 257.308 16.3584L243.577 36.878C243.329 37.2491 242.994 37.5555 242.603 37.7714C242.211 37.9874 241.773 38.1066 241.325 38.1191C241.299 38.1195 241.273 38.12 241.247 38.12Z" fill="white"/>
</g>
<defs>
<clipPath id="clip0_19_24">
<rect width="445" height="388" fill="white"/>
</clipPath>
</defs>
</svg>
